<svg xmlns="http://www.w3.org/2000/svg" width="1116" height="762" viewBox="0 0 1116 762">
  <path fill="#FFF" fill-rule="evenodd" d="M1116,199.681872 L916.378367,761.574589 L861.083739,738.438828 L1116,199.681872 Z M1.26476607e-12,197.374781 L254.916261,736.131736 L199.621633,759.267497 L1.26476607e-12,197.374781 Z M938.765307,83.8125126 L810.162432,722.520147 L752.082755,707.824599 L938.765307,83.8125126 Z M177.236675,81.503426 L363.914272,705.515512 L305.83955,720.21106 L177.236675,81.503426 Z M753.050089,24.8238039 L704.088723,698.359788 L644.621477,691.281382 L753.050089,24.8238039 Z M362.951893,22.5157149 L471.37555,688.973293 L411.908304,696.051699 L362.951893,22.5157149 Z M557.041091,3.41060513e-13 L586.982849,684.804566 L527.099332,684.804566 L557.041091,3.41060513e-13 Z" opacity=".259"/>
</svg>
