<svg xmlns="http://www.w3.org/2000/svg" width="50" height="40" viewBox="0 0 50 40">
  <g fill="#5E02F8">
    <path d="M25,30 L10,30 L10,17.5 L5,17.5 L5,37.5 L5,37.5 C5,38.8807113 6.11928906,40 7.5,40 L27.5,40 L27.5,40 C28.8807108,40 30,38.8807113 30,37.5 L30,17.5 L25,17.5 L25,30 Z M40,17.5 L40,38.75 L40,38.7500002 C40,39.4403564 40.5596445,40 41.25,40 L43.75,40 L43.7499999,40 C44.4403562,40 45,39.4403564 45,38.7500002 L45,17.5 L40,17.5 Z" opacity=".4"/>
    <path d="M49.5742188,11.109375 C50.6757812,12.7734375 49.4882812,14.9999924 47.4960938,14.9999924 L2.50390625,14.9999924 C0.50390625,14.9999924 -0.68359375,12.7734375 0.42578125,11.109375 L7.08984375,1.109375 L7.08984395,1.10937471 C7.5527416,0.41455205 8.33307832,-0.00201591869 9.16796895,-7.57509591e-06 L40.8242189,-7.57509591e-06 L40.8242189,-7.57509591e-06 C41.6608048,-0.000301210848 42.4427267,0.415555956 42.9101564,1.10937471 L49.5742188,11.109375 Z"/>
  </g>
</svg>
