<svg xmlns="http://www.w3.org/2000/svg" width="50" height="50" viewBox="0 0 50 50">
  <g fill="none" fill-rule="evenodd">
    <rect width="50" height="50"/>
    <path fill="#5E02F8" fill-rule="nonzero" d="M33.33328,32.5657812 L33.33328,25.0000017 C33.33328,21.5482364 30.5350553,18.7500117 27.08329,18.7500117 L12.8371253,18.7500117 L12.8371253,11.5131899 C12.8371253,8.60642373 15.1935174,6.25003167 18.1002835,6.25003167 L42.6617026,6.25003167 C45.5684688,6.25003167 47.9248608,8.60642373 47.9248608,11.5131899 L47.9248608,27.3026438 L47.9596138,37.0558157 C47.9616566,37.6311085 47.4969515,38.0991349 46.9216587,38.1011915 C46.644107,38.1021736 46.3776387,37.9923544 46.1813786,37.7960958 L40.9510745,32.5657916 L33.3333367,32.5657916 L33.33328,32.5657812 Z"/>
    <path fill="#5E02F8" fill-rule="nonzero" d="M4.13553505,37.49994 L4.13553505,27.08329 C4.13553505,24.7821062 6.00101123,22.91663 8.30219505,22.91663 L24.968835,22.91663 C27.2700189,22.91663 29.135495,24.7821083 29.135495,27.08329 L29.135495,37.49994 C29.135495,39.8011238 27.2700168,41.6666 24.968835,41.6666 L8.54329883,41.6666 L5.95194881,44.1468669 C5.53634323,44.5446558 4.8769547,44.5302142 4.47916575,44.1146069 C4.29360063,43.9207306 4.19002246,43.662716 4.19002246,43.3943456 L4.19002246,38.1754789 C4.15417606,37.9556043 4.13553505,37.7299463 4.13553505,37.4999383 L4.13553505,37.49994 Z M13.541645,29.16662 C12.9663501,29.16662 12.49998,29.6329901 12.49998,30.208285 C12.49998,30.7835799 12.9663501,31.24995 13.541645,31.24995 L23.958295,31.24995 C24.5335899,31.24995 24.99996,30.7835799 24.99996,30.208285 C24.99996,29.6329901 24.5335899,29.16662 23.958295,29.16662 L13.541645,29.16662 Z M19.791635,33.33328 C19.2163401,33.33328 18.74997,33.7996501 18.74997,34.374945 C18.74997,34.9502399 19.2163401,35.41661 19.791635,35.41661 L23.958295,35.41661 C24.5335899,35.41661 24.99996,34.9502399 24.99996,34.374945 C24.99996,33.7996501 24.5335899,33.33328 23.958295,33.33328 L19.791635,33.33328 Z" opacity=".4"/>
  </g>
</svg>
