<svg xmlns="http://www.w3.org/2000/svg" width="53" height="40" viewBox="0 0 53 40">
  <g fill="#5E02F8">
    <path d="M46.4166668,32.6210602 L40,32.6210602 L40,36.3105298 L40,36.3105304 C40,38.3481668 41.641624,40 43.6666667,40 L47.3333334,40 L47.3333333,40 C49.358376,40 51,38.3481668 51,36.3105304 L51,31 L51,31 C49.7011405,32.0513686 48.0836363,32.623459 46.4166665,32.6210608 L46.4166668,32.6210602 Z M39.44227,10.3009374 L39.44227,10.3009375 C38.6032233,8.30732656 36.5709115,7 34.3108556,7 L19.689145,7 L19.6891447,7 C17.4293651,6.99980253 15.3971431,8.30665938 14.5577303,10.2998438 L13,14 L41,14 L39.44227,10.3009374 Z M7.58333343,32.6210606 L7.5833334,32.6210606 C5.91636358,32.6234596 4.29885939,32.0513685 3,31 L3,36.31053 L3,36.3105306 C3,38.3481669 4.64162398,40 6.66666672,40 L10.3333334,40 L10.3333333,40 C12.358376,40 14,38.3481669 14,36.3105306 L14,32.6210612 L7.58333343,32.6210606 Z" opacity=".318"/>
    <path d="M48.487003,15.2287353 L47.9078866,13.7769209 L45.6313995,8.06706173 L45.6313997,8.0670621 C43.7020283,3.18331634 38.9887292,-0.017355914 33.7520893,7.61507193e-05 L19.2456238,7.61507193e-05 L19.2456246,7.61507193e-05 C14.0087905,-0.0179983995 9.29516012,3.18289237 7.36631421,8.0670621 L5.09211163,13.7757754 L4.51299525,15.2275898 L4.51299569,15.2275897 C1.78231918,16.3621706 0.00133642241,19.0346551 0,21.9996682 L0,25.6664451 L0,25.6664462 C0,29.7166534 3.2729556,33 7.31034483,33 L45.6896552,33 L45.6896549,33 C49.7270441,33 53,29.7166534 53,25.6664462 L53,21.9996693 L53,21.9997544 C52.9982325,19.0351538 51.2173607,16.3632193 48.487084,15.2287644 L48.487003,15.2287353 Z M14.5577306,10.3009371 L14.5577304,10.3009375 C15.3967772,8.30732656 17.429089,7 19.6891449,7 L34.3108554,7 L34.3108553,7 C36.5706349,6.99980234 38.6028569,8.30665938 39.4422697,10.2998438 L41,14 L13,14 L14.5577306,10.3009371 Z M8.6,26.9781931 C6.44,26.9781931 5,25.5825545 5,23.4890966 C5,21.3956386 6.44,20 8.6,20 C10.76,20 14,23.1401869 14,25.2336449 C14,27.3271028 10.76,26.9781931 8.6,26.9781931 L8.6,26.9781931 Z M48,23.4890966 C48,25.5825545 46.56,26.9781931 44.4,26.9781931 C42.24,26.9781931 39,27.3271028 39,25.2336449 C39,23.1401869 42.24,20 44.4,20 C46.56,20 48,21.3956386 48,23.4890966 L48,23.4890966 Z"/>
  </g>
</svg>
