<svg xmlns="http://www.w3.org/2000/svg" width="50" height="46" viewBox="0 0 50 46">
  <g fill="#5E02F8">
    <path d="M48.0955107,14.7673705 L36.1111296,20.2222344 L36.1111296,45.2222472 L48.2534969,40.3654739 L48.2534969,40.3654739 C49.3082196,39.9437697 50.0000255,38.9223829 50.0000255,37.7864795 L50.0000255,16.0555656 L50.0000255,16.0555614 C49.999231,15.2884993 49.3767605,14.6673141 48.609695,14.668112 C48.4335542,14.668112 48.2590559,14.7019809 48.0955037,14.7673741 L48.0955107,14.7673705 Z M1.74652867,19.5277896 L1.7465287,19.5277896 C0.693272956,19.9489053 0.00188371296,20.9681202 -1.27544553e-09,22.1024437 L-1.27544553e-09,43.8333576 L-1.27544553e-09,43.8336589 C-1.27544553e-09,44.6007217 0.621826706,45.2225485 1.3888896,45.2225485 C1.56561365,45.2225485 1.74071443,45.1888213 1.90479524,45.1231769 L13.888916,39.6666897 L13.888916,19.4340405 L13.888916,19.43404 C13.1617209,18.1451852 12.5446529,16.7972244 12.0442967,15.404524 L1.74652867,19.5277896 Z M25.0000128,31.9991502 L25.000013,31.9991502 C23.7777555,31.9982606 22.6181195,31.4583044 21.8307406,30.523455 C20.1241425,28.5130373 18.3090374,26.2196333 16.6666754,23.8680696 L16.6666754,39.6666888 L33.3333506,45.2222472 L33.3333506,23.8680696 C31.6909887,26.2196333 29.8767516,28.5139053 28.1692855,30.5277952 L28.1692854,30.5277953 C27.3809335,31.460834 26.2215153,31.9990981 25.000013,31.9991502 L25.0000128,31.9991502 Z" opacity=".318"/>
    <path d="M25.0000128,0.777779804 L25.0000123,0.777779804 C18.9593929,0.777779804 14.0625067,5.67466619 14.0625067,11.7152856 C14.0625067,11.7152856 14.0625067,11.7152856 14.0625067,11.7152856 C14.0625067,16.5989687 21.2109479,25.5000149 23.9496646,28.7291832 L23.9496644,28.729183 C24.4345197,29.3092744 25.2978335,29.3864776 25.8779206,28.9016223 C25.9404159,28.8493871 25.9981246,28.7916787 26.0503599,28.729183 C28.7890766,25.5000147 35.9375178,16.5989685 35.9375178,11.7152854 L35.9375178,11.7152854 C35.9375178,5.67466599 31.0406316,0.777779804 25.0000122,0.777779804 L25.0000128,0.777779804 Z M25.0000128,15.3611208 L25.0000126,15.3611208 C22.9864699,15.3611208 21.3541774,13.7288283 21.3541774,11.7152856 C21.3541774,9.7017429 22.9864699,8.0694504 25.0000126,8.0694504 C27.0135553,8.0694504 28.6458478,9.7017429 28.6458478,11.7152856 L28.6458478,11.7152856 C28.6458478,13.7288283 27.0135553,15.3611208 25.0000126,15.3611208 L25.0000128,15.3611208 Z"/>
  </g>
</svg>
