<svg xmlns="http://www.w3.org/2000/svg" width="50" height="34" viewBox="0 0 50 34">
  <g fill="#5E02F8">
    <path d="M47.2222464,0.3333384 L8.3333376,0.3333384 L8.33333748,0.3333384 C6.79921343,0.3333384 5.55555828,1.57699355 5.55555828,3.1111176 C5.55555828,3.1111176 5.55555828,3.1111176 5.55555828,3.1111176 L5.55555828,31.08075 C5.55555828,31.112 5.551218,31.1441181 5.54774577,31.1753681 C5.54774577,31.1935973 5.54774577,31.2118264 5.54080133,31.2300556 C5.53385688,31.2482848 5.53385688,31.2873473 5.5295166,31.3168612 C5.52517632,31.3463751 5.52257215,31.3567918 5.51909993,31.375889 C5.5156277,31.3949862 5.51041937,31.4288404 5.50521103,31.4548821 C5.50000269,31.4809238 5.49566241,31.4948127 5.49132213,31.514778 C5.48698185,31.5347433 5.48003741,31.5659933 5.47309296,31.5902988 C5.46614851,31.6146044 5.46180823,31.6302294 5.45659989,31.6501947 L5.43576655,31.7231114 L5.41493321,31.7821392 C5.4071207,31.8064448 5.3993082,31.8298823 5.39062764,31.8533198 C5.38194708,31.8767573 5.37587069,31.8923823 5.36805818,31.9114796 C5.36024568,31.9305768 5.34982901,31.9574865 5.34028039,31.980056 C5.33073177,32.0026254 5.32291927,32.0191185 5.31423871,32.0382157 C5.30555815,32.057313 5.29427342,32.0824866 5.28385675,32.104188 L5.2552109,32.1606116 C5.24392617,32.182313 5.2335095,32.2031464 5.22135672,32.2248478 L5.1901067,32.2795353 L5.15364835,32.3420353 L5.11979417,32.3949868 C5.10677333,32.414952 5.09375249,32.4349173 5.07986359,32.4548826 L5.04340524,32.506966 L5.00173855,32.5642577 C4.98871771,32.5816188 4.97569687,32.5981119 4.96180797,32.6146049 C4.94791908,32.631098 4.93316213,32.6519313 4.91753712,32.6701605 L4.87587043,32.7179036 L4.82899541,32.770855 L4.78472455,32.816862 C4.76909954,32.8342231 4.75260648,32.8507162 4.73524536,32.8680773 L4.68923839,32.9114801 L4.63715503,32.9600912 L4.58941195,33.0017579 L4.53559248,33.0468968 L4.48524523,33.0868274 L4.42882159,33.1293621 L4.37673823,33.1666885 L4.31771042,33.2066191 C4.3003493,33.2187719 4.28212013,33.2300566 4.26389095,33.2413414 L4.20399509,33.2786678 L4.14757145,33.3107858 C4.12760616,33.3220706 4.10677281,33.3342234 4.08593947,33.34464 L4.02777972,33.3741539 C4.00694637,33.3854387 3.98611303,33.3958553 3.96441163,33.4054039 L3.90451577,33.4323137 L3.84027962,33.4600915 L3.77864765,33.484397 L3.71180733,33.5095707 L3.6493073,33.530404 L3.58159893,33.5521054 L3.51649473,33.5703346 L3.44791831,33.5885638 L3.38194605,33.6033207 L3.31163352,33.6180777 L3.24479321,33.6302304 L3.17361261,33.6406471 L3.10503619,33.6493277 L3.03298754,33.6571402 L2.96267501,33.6623485 L2.81944577,33.6623485 L45.8333567,33.6623485 L45.8333565,33.6623485 C48.1345469,33.6623485 50.0000253,31.7968701 50.0000253,29.4956797 L50.0000253,3.1111176 L50.0000253,3.1111176 C50.0000253,1.57699355 48.7563701,0.3333384 47.2222461,0.3333384 L47.2222464,0.3333384 Z M26.3889024,27.0694632 L26.3889024,27.0694632 C26.3889024,27.6447604 25.9225324,28.1111304 25.3472352,28.1111304 L12.152784,28.1111304 L12.152784,28.1111304 C11.5774868,28.1111304 11.1111168,27.6447604 11.1111168,27.0694632 C11.1111168,27.0694632 11.1111168,27.0694632 11.1111168,27.0694632 L11.1111168,26.3750184 L11.1111168,26.3750186 C11.1111168,25.7997214 11.5774868,25.3333514 12.152784,25.3333514 L25.3472352,25.3333514 L25.3472351,25.3333514 C25.9225323,25.3333514 26.3889024,25.7997214 26.3889024,26.3750186 L26.3889024,27.0694632 Z M26.3889024,18.7361256 L26.3889024,18.7361256 C26.3889024,19.3114228 25.9225324,19.7777928 25.3472352,19.7777928 L12.152784,19.7777928 L12.152784,19.7777928 C11.5774868,19.7777928 11.1111168,19.3114228 11.1111168,18.7361256 C11.1111168,18.7361256 11.1111168,18.7361256 11.1111168,18.7361256 L11.1111168,18.0416808 L11.1111168,18.041681 C11.1111168,17.4663838 11.5774868,17.0000138 12.152784,17.0000138 L25.3472352,17.0000138 L25.3472351,17.0000138 C25.9225323,17.0000138 26.3889024,17.4663838 26.3889024,18.041681 C26.3889024,18.041681 26.3889024,18.041681 26.3889024,18.041681 L26.3889024,18.7361256 Z M44.4444672,27.0694632 L44.4444672,27.0694632 C44.4444672,27.6447604 43.9780972,28.1111304 43.4028,28.1111304 L30.2083488,28.1111304 L30.2083488,28.1111304 C29.6330516,28.1111304 29.1666816,27.6447604 29.1666816,27.0694632 C29.1666816,27.0694632 29.1666816,27.0694632 29.1666816,27.0694632 L29.1666816,26.3750184 L29.1666816,26.3750186 C29.1666816,25.7997214 29.6330516,25.3333514 30.2083488,25.3333514 L43.4028,25.3333514 L43.4027999,25.3333514 C43.9780971,25.3333514 44.4444672,25.7997214 44.4444672,26.3750186 L44.4444672,27.0694632 Z M44.4444672,18.7361256 L44.4444672,18.7361256 C44.4444672,19.3114228 43.9780972,19.7777928 43.4028,19.7777928 L30.2083488,19.7777928 L30.2083488,19.7777928 C29.6330516,19.7777928 29.1666816,19.3114228 29.1666816,18.7361256 C29.1666816,18.7361256 29.1666816,18.7361256 29.1666816,18.7361256 L29.1666816,18.0416808 L29.1666816,18.041681 C29.1666816,17.4663838 29.6330516,17.0000138 30.2083488,17.0000138 L43.4028,17.0000138 L43.4027999,17.0000138 C43.9780971,17.0000138 44.4444672,17.4663838 44.4444672,18.041681 C44.4444672,18.041681 44.4444672,18.041681 44.4444672,18.041681 L44.4444672,18.7361256 Z M44.4444672,10.402788 L44.4444672,10.402788 C44.4444672,10.9780852 43.9780972,11.4444552 43.4028,11.4444552 L12.152784,11.4444552 L12.152784,11.4444552 C11.5774868,11.4444552 11.1111168,10.9780852 11.1111168,10.402788 C11.1111168,10.402788 11.1111168,10.402788 11.1111168,10.402788 L11.1111168,6.930564 L11.1111168,6.93056416 C11.1111168,6.35526699 11.5774868,5.88889696 12.152784,5.88889696 L43.4028,5.88889696 L43.4027999,5.88889696 C43.9780971,5.88889696 44.4444672,6.35526699 44.4444672,6.93056416 L44.4444672,10.402788 Z"/>
    <path d="M25.3472352,25.3333512 L12.152784,25.3333512 L12.152784,25.3333512 C11.5774868,25.3333512 11.1111168,25.7997212 11.1111168,26.3750184 C11.1111168,26.3750184 11.1111168,26.3750184 11.1111168,26.3750184 L11.1111168,27.0694632 L11.1111168,27.0694634 C11.1111168,27.6447605 11.5774868,28.1111306 12.152784,28.1111306 L25.3472352,28.1111306 L25.3472351,28.1111306 C25.9225323,28.1111306 26.3889023,27.6447605 26.3889023,27.0694634 L26.3889023,26.3750186 L26.3889023,26.3750186 C26.3889023,25.7997214 25.9225323,25.3333512 25.3472351,25.3333512 L25.3472352,25.3333512 Z M25.3472352,17.0000136 L12.152784,17.0000136 L12.152784,17.0000136 C11.5774868,17.0000136 11.1111168,17.4663836 11.1111168,18.0416808 C11.1111168,18.0416808 11.1111168,18.0416808 11.1111168,18.0416808 L11.1111168,18.7361256 L11.1111168,18.7361258 C11.1111168,19.3114229 11.5774868,19.777793 12.152784,19.777793 L25.3472352,19.777793 L25.3472351,19.777793 C25.9225323,19.777793 26.3889023,19.3114229 26.3889023,18.7361258 L26.3889023,18.041681 L26.3889023,18.041681 C26.3889023,17.4663838 25.9225323,17.0000136 25.3472351,17.0000136 L25.3472352,17.0000136 Z M43.4028,25.3333512 L30.2083488,25.3333512 L30.2083488,25.3333512 C29.6330516,25.3333512 29.1666816,25.7997212 29.1666816,26.3750184 C29.1666816,26.3750184 29.1666816,26.3750184 29.1666816,26.3750184 L29.1666816,27.0694632 L29.1666816,27.0694634 C29.1666816,27.6447605 29.6330516,28.1111306 30.2083488,28.1111306 L43.4028,28.1111306 L43.4027999,28.1111306 C43.9780971,28.1111306 44.4444671,27.6447605 44.4444671,27.0694634 L44.4444671,26.3750186 L44.4444671,26.3750186 C44.4444671,25.7997214 43.9780971,25.3333512 43.4027999,25.3333512 L43.4028,25.3333512 Z M43.4028,17.0000136 L30.2083488,17.0000136 L30.2083488,17.0000136 C29.6330516,17.0000136 29.1666816,17.4663836 29.1666816,18.0416808 C29.1666816,18.0416808 29.1666816,18.0416808 29.1666816,18.0416808 L29.1666816,18.7361256 L29.1666816,18.7361258 C29.1666816,19.3114229 29.6330516,19.777793 30.2083488,19.777793 L43.4028,19.777793 L43.4027999,19.777793 C43.9780971,19.777793 44.4444671,19.3114229 44.4444671,18.7361258 L44.4444671,18.041681 L44.4444671,18.041681 C44.4444671,17.4663838 43.9780971,17.0000136 43.4027999,17.0000136 L43.4028,17.0000136 Z M-3.91316131e-06,5.8888968 L-3.91316131e-06,30.8307498 C-3.91316131e-06,32.3446395 1.18663255,33.6241541 2.69965416,33.6666888 L2.69965416,33.6666888 C4.23317057,33.7098362 5.51131359,32.5016535 5.55445597,30.9681371 C5.55519881,30.9417356 5.55555483,30.9153249 5.55555483,30.888913 L5.55555483,3.11112099 L2.77777541,3.11112099 L2.77777529,3.11112099 C1.24365124,3.11112099 -3.91316131e-06,4.35477614 -3.91316131e-06,5.88890019 C-3.91316131e-06,5.88890019 -3.91316131e-06,5.88890019 -3.91316131e-06,5.88890019 L-3.91316131e-06,5.8888968 Z" opacity=".4"/>
  </g>
</svg>
