<svg xmlns="http://www.w3.org/2000/svg" width="113" height="128" viewBox="0 0 113 128">
  <path fill="#FFF" fill-rule="evenodd" d="M87.252638 115.660429C89.318181 115.660429 90.8556396 114.589988 90.8556396 112.635706 90.8556396 110.820942 89.815069 110.014649 87.9670337 109.223416L87.4233512 108.990771C86.4916212 108.587452 86.0878021 108.323823 86.0878021 107.672453 86.0878021 107.144849 86.4916212 106.741876 87.1283727 106.741876 87.7495261 106.741876 88.1533451 107.005159 88.5261411 107.672453L90.218888 106.586607C89.5046656 105.330085 88.5107163 104.84939 87.1283727 104.84939 85.1870951 104.84939 83.9447883 106.090333 83.9447883 107.718844 83.9447883 109.487045 84.9851856 110.324668 86.5536672 110.991617L87.0973497 111.224261C88.0911258 111.658738 88.6814294 111.922194 88.6814294 112.666691 88.6814294 113.287422 88.1068972 113.737305 87.2060169 113.737305 86.1344233 113.737305 85.5288681 113.178716 85.0628298 112.418468L83.2924387 113.442518C83.9291902 114.698694 85.2337163 115.660429 87.252638 115.660429L87.252638 115.660429zM74.49525 115.520912L76.6694601 115.520912 76.6694601 106.88122 79.6823313 106.88122 79.6823313 104.973329 71.4823788 104.973329 71.4823788 106.88122 74.49525 106.88122 74.49525 115.520912zM66.8303144 115.613866L67.0476488 115.613866 67.0476488 104.973329 65.0133021 104.973329 65.0133021 109.393918C65.0133021 110.123009 65.1529923 111.317215 65.1529923 111.317215 65.1529923 111.317215 64.4231718 110.355653 63.9105123 109.874612L58.5837408 104.880375 58.3664064 104.880375 58.3664064 115.520912 60.4009264 115.520912 60.4009264 111.100323C60.4009264 110.340247 60.2454647 109.177025 60.2454647 109.177025 60.2454647 109.177025 60.9754586 110.123009 61.5033696 110.619282L66.8303144 115.613866zM50.7912469 115.520912L52.9652837 115.520912 52.9652837 104.973155 50.7912469 104.973155 50.7912469 115.520912zM40.3853681 113.721553C38.4596887 113.721553 37.1549893 112.216808 37.1549893 110.24712 37.1549893 108.277433 38.4596887 106.772687 40.3853681 106.772687 42.3110475 106.772687 43.6155736 108.277433 43.6155736 110.24712 43.6155736 112.216808 42.3110475 113.721553 40.3853681 113.721553L40.3853681 113.721553zM40.3853681 115.660429C43.4294356 115.660429 45.8520031 113.364797 45.8520031 110.24712 45.8520031 107.129443 43.4294356 104.833811 40.3853681 104.833811 37.3414739 104.833811 34.9187331 107.129443 34.9187331 110.24712 34.9187331 113.364797 37.3414739 115.660429 40.3853681 115.660429L40.3853681 115.660429zM25.164684 111.208855L25.164684 106.88122 25.8480567 106.88122C27.5874248 106.88122 28.3948896 107.594559 28.3948896 109.052741 28.3948896 110.495343 27.6184479 111.208855 25.8480567 111.208855L25.164684 111.208855zM22.9904739 115.520912L25.164684 115.520912 25.164684 113.116574 25.9102761 113.116574C28.8453298 113.116574 30.631319 111.596596 30.631319 109.052741 30.631319 106.508885 28.8607546 104.973329 25.9102761 104.973329L22.9904739 104.973329 22.9904739 115.520912zM85.9616304 97.8726555L86.179138 97.8726555 86.179138 87.2324644 84.1446181 87.2324644 84.1446181 91.6530536C84.1446181 92.3819714 84.2844816 93.5763509 84.2844816 93.5763509 84.2844816 93.5763509 83.5544877 92.6144426 83.0420015 92.1337481L77.7152301 87.1391643 77.4977224 87.1391643 77.4977224 97.7795285 79.5322423 97.7795285 79.5322423 93.3589392C79.5322423 92.5990369 79.376954 91.435815 79.376954 91.435815 79.376954 91.435815 80.1069479 92.3819714 80.6346856 92.8782447L85.9616304 97.8726555zM65.2124387 97.7795285L72.4184417 97.7795285 72.4184417 95.8719831 67.3866488 95.8719831 67.3866488 93.4802813 71.6262285 93.4802813 71.6262285 91.6191263 67.3866488 91.6191263 67.3866488 89.1400098 72.200934 89.1400098 72.200934 87.2324644 65.2124387 87.2324644 65.2124387 97.7795285zM56.0116043 97.8726555L56.2289387 97.8726555 60.8569126 87.2324644 58.7449218 87.2324644 56.9743574 91.2961245C56.5707117 92.2111232 56.1668926 93.6848837 56.1668926 93.6848837 56.1668926 93.6848837 55.7474755 92.1957174 55.3438298 91.2961245L53.5266442 87.2324644 51.1971457 87.2324644 56.0116043 97.8726555zM39.846885 97.7795285L47.0527147 97.7795285 47.0527147 95.8719831 42.0209218 95.8719831 42.0209218 93.4802813 46.2606748 93.4802813 46.2606748 91.6191263 42.0209218 91.6191263 42.0209218 89.1400098 46.8352071 89.1400098 46.8352071 87.2324644 39.846885 87.2324644 39.846885 97.7795285zM31.1502178 97.9192189C33.2157607 97.9192189 34.7532193 96.848951 34.7532193 94.8944959 34.7532193 93.0799045 33.7126488 92.2732655 31.8646135 91.4822054L31.320931 91.2497342C30.3892009 90.8462416 29.9853819 90.5826126 29.9853819 89.9310699 29.9853819 89.4036388 30.3892009 89.0003193 31.0259525 89.0003193 31.6471058 89.0003193 32.0509248 89.2642945 32.4237209 89.9310699L34.1164678 88.8453961C33.4020721 87.5890473 32.4081227 87.1081797 31.0259525 87.1081797 29.0846748 87.1081797 27.8421948 88.3489497 27.8421948 89.9776334 27.8421948 91.7460075 28.8827653 92.5836311 30.4512469 93.2504065L30.9947561 93.483224C31.9887055 93.9175281 32.5790092 94.1811571 32.5790092 94.9258268 32.5790092 95.5460387 32.004477 95.9957485 31.1035966 95.9957485 30.0320031 95.9957485 29.4262745 95.4375059 28.9604095 94.6776035L27.1898451 95.7011349C27.8267699 96.9576568 29.131296 97.9192189 31.1502178 97.9192189L31.1502178 97.9192189zM74.0200261 127.606648L74.113615 127.606648 74.113615 123.025078 73.2376917 123.025078 73.2376917 124.928469C73.2376917 125.242469 73.2980046 125.756745 73.2980046 125.756745 73.2980046 125.756745 72.983615 125.342693 72.7629877 125.135494L70.469365 122.985092 70.3757761 122.985092 70.3757761 127.56649 71.2516994 127.56649 71.2516994 125.663099C71.2516994 125.335942 71.1849739 124.834995 71.1849739 124.834995 71.1849739 124.834995 71.4991902 125.242469 71.7265767 125.456073L74.0200261 127.606648zM63.989023 127.606648L64.082612 127.606648 65.1457132 125.416087C65.2659923 125.162325 65.4063758 124.741695 65.4063758 124.741695 65.4063758 124.741695 65.5401733 125.162325 65.6606258 125.416087L66.6836917 127.606648 66.7772807 127.606648 68.4289525 123.025078 67.5195798 123.025078 66.8642837 124.848324C66.7505905 125.162325 66.6235521 125.669849 66.6235521 125.669849 66.6235521 125.669849 66.4897546 125.155574 66.3427853 124.848324L65.4533436 122.985092 65.3597546 122.985092 64.4838313 124.848324C64.3365153 125.155574 64.2028911 125.669849 64.2028911 125.669849 64.2028911 125.669849 64.0758528 125.162325 63.9621595 124.848324L63.3001043 123.025078 62.3104877 123.025078 63.989023 127.606648zM58.3721258 126.792047C57.5428236 126.792047 56.9811166 126.144139 56.9811166 125.295784 56.9811166 124.447774 57.5428236 123.799866 58.3721258 123.799866 59.2012546 123.799866 59.7629617 124.447774 59.7629617 125.295784 59.7629617 126.144139 59.2012546 126.792047 58.3721258 126.792047L58.3721258 126.792047zM58.3721258 127.626728C59.6827178 127.626728 60.7257147 126.638336 60.7257147 125.295784 60.7257147 123.953405 59.6827178 122.964839 58.3721258 122.964839 57.0613604 122.964839 56.0181902 123.953405 56.0181902 125.295784 56.0181902 126.638336 57.0613604 127.626728 58.3721258 127.626728L58.3721258 127.626728zM52.1092914 127.56649L53.0455276 127.56649 53.0455276 123.84643 54.3427745 123.84643 54.3427745 123.025078 50.8120445 123.025078 50.8120445 123.84643 52.1092914 123.84643 52.1092914 127.56649zM46.6930905 125.710008L46.6930905 123.84643 46.9873758 123.84643C47.7362607 123.84643 48.0839264 124.153853 48.0839264 124.781508 48.0839264 125.402758 47.7496058 125.710008 46.9873758 125.710008L46.6930905 125.710008zM45.7570276 127.56649L46.6930905 127.56649 46.6930905 126.531361 47.014066 126.531361C48.2778635 126.531361 49.0468528 125.876875 49.0468528 124.781508 49.0468528 123.686141 48.2846227 123.025078 47.014066 123.025078L45.7570276 123.025078 45.7570276 127.56649zM41.5569632 127.626728C42.5935475 127.626728 43.3894003 127.072467 43.3894003 125.923439L43.3894003 123.025078 42.4531641 123.025078 42.4531641 125.870124C42.4531641 126.531361 42.1723972 126.785296 41.5569632 126.785296 40.9352899 126.785296 40.6477638 126.531361 40.6477638 125.870124L40.6477638 123.025078 39.7113543 123.025078 39.7113543 125.923439C39.7113543 127.072467 40.5073804 127.626728 41.5569632 127.626728L41.5569632 127.626728zM112.97591 23.1903508L91.1287807 78.9637227C89.4096902 78.2618083 87.4729187 77.6139007 85.3496626 77.0288278L85.3496626 77.0288278 112.97591 23.1903508zM2.40024802e-14 23.1903508L27.5770261 76.9331043C25.4581028 77.5046755 23.5204647 78.1385622 21.7927086 78.8252439L21.7927086 78.8252439 2.40024802e-14 23.1903508zM95.3155 12.1556683L80.9908436 75.9725808C79.0272086 75.5555865 76.9476273 75.1875791 74.7699509 74.8728861L74.7699509 74.8728861 95.3155 12.1556683zM17.6602362 12.1556683L38.187934 74.818187C36.0128574 75.1243982 33.9331028 75.4840968 31.9670414 75.89209L31.9670414 75.89209 17.6602362 12.1556683zM77.1001426 4.41037641L71.0059417 74.3942688C68.9641426 74.1685483 66.8521518 73.988699 64.6824479 73.8583558L64.6824479 73.8583558 64.6379064 73.8524705 77.1001426 4.41037641zM35.8755936 4.41037641L48.3341902 73.832218C46.1501012 73.9565027 44.0233788 74.1308129 41.9661549 74.3513403L41.9661549 74.3513403 35.8755936 4.41037641zM56.2889049-1.19951838e-14L59.4875675 73.6084016 53.090069 73.6084016 56.2889049-1.19951838e-14z"/>
</svg>
