<svg xmlns="http://www.w3.org/2000/svg" xmlns:xlink="http://www.w3.org/1999/xlink" width="1128" height="696" viewBox="0 0 1128 696">
  <defs>
    <polygon id="maps_br-2-a" points="0 696.001 1128 696.001 1128 0 0 0"/>
    <polygon id="maps_br-2-c" points=".687 .291 208.381 .291 208.381 248 .687 248"/>
  </defs>
  <g fill="none" fill-rule="evenodd" transform="translate(0 -.001)">
    <mask id="maps_br-2-b" fill="#fff">
      <use xlink:href="#maps_br-2-a"/>
    </mask>
    <use fill="#000" xlink:href="#maps_br-2-a"/>
    <g mask="url(#maps_br-2-b)">
      <g transform="translate(169 448.001)">
        <mask id="maps_br-2-d" fill="#fff">
          <use xlink:href="#maps_br-2-c"/>
        </mask>
        <path fill="#3B58AE" d="M191.188,246.971 C190.303,247.505 189.012,247.693 187.932,247.692 C139.337,247.675 90.744,247.656 42.149,247.639 C37.876,247.637 6.903,256.704 10.998,228.07 C12.823,215.308 7.594,202.649 4.735,190.077 C-2.564,157.983 0.064,123.705 12.17,93.1 C29.037,50.458 66.935,8.832 114.026,1.161 C114.803,1.035 115.581,0.92 116.361,0.819 C131.75,-1.187 148.559,2.412 159.471,13.447 C167.575,21.643 171.625,32.896 175.526,43.742 C187.228,76.271 201.798,100.041 207.432,134.148 C213.066,168.257 191.792,246.606 191.188,246.971" mask="url(#maps_br-2-d)"/>
      </g>
    </g>
    <path fill="#395192" d="M347.46,438.586 C347.946,437.1 348.038,435.566 348.003,434.019 C348.07,433.917 348.137,433.816 348.202,433.714 C349.368,433.107 350.49,432.73 351.225,434.312 C350.433,436.318 351.2,438.347 351.159,440.362 C351.241,442.897 353.118,444.73 353.776,447.044 C353.833,447.308 353.841,447.568 353.81,447.834 C352.485,452.977 350.686,454.658 345.471,454.818 C342.906,454.897 340.385,455.539 337.81,455.275 C337.486,455.105 337.162,454.935 336.838,454.765 C333.128,450.021 327.023,449.22 322.392,445.992 C321.912,445.658 321.312,445.515 320.886,445.081 C319.865,444.255 318.493,443.636 319.145,441.884 C319.774,440.195 321.762,438.948 323.811,439.181 C328.484,439.705 333.123,440.479 337.78,441.119 C338.529,441.223 339.308,441.23 340.022,441.426 C343.22,442.303 345.786,441.645 347.46,438.586" mask="url(#maps_br-2-b)"/>
    <path fill="#3B58AE" d="M395.147 342.404C391.486 341.022 387.521 339.854 384.546 337.517 377.486 331.971 377.58 321.303 379.446 312.521 381.67 302.058 385.489 291.935 390.729 282.609 396.347 272.615 403.885 262.272 402.176 250.935 400.135 237.389 386.084 229.527 378.509 218.063 377.558 216.621 375.416 216.651 374.553 218.146 372.6 221.52 372.181 225.835 372.757 229.774 373.512 234.949 375.694 239.79 377.145 244.814 383.829 267.942 374.66 292.498 364.124 314.144 362.145 318.209 359.381 321.074 355.945 324.014 352.508 326.952 346.454 328.283 342.423 326.236 334.905 322.415 333.103 309.38 328.344 309.977 325.001 310.394 320.412 312.355 318.628 310.372 316.738 308.272 316.298 302.313 318.43 300.457 323.757 295.82 322.42 291.023 317.24 286.379 312.914 282.5 306.779 280.057 303.779 285.032 300.087 291.154 304.196 301.04 299.22 306.172 294.474 311.066 285.206 308.062 280.3 312.794 277.63 315.371 277.164 319.415 276.856 323.114 275.872 334.957 274.888 346.8 273.902 358.643 261.505 349.044 243.787 352.241 228.586 348.398 209.761 343.64 195.722 328.317 183.229 313.452 181.832 311.788 180.378 309.986 180.133 307.826 179.791 304.806 181.89 302.094 184.003 299.907 192.268 291.352 203.558 283.126 203.424 271.232 203.287 259.003 190.777 250.23 188.679 238.106 188.524 237.209 188.583 236.27 188.99 235.454 190.269 232.895 193.44 233.52 196.01 233.733 203.435 234.352 210.457 229.481 214.528 223.239 218.599 216.998 220.286 209.545 221.88 202.266 222.371 200.024 222.764 197.389 221.223 195.689 219.843 194.166 217.488 194.077 215.728 193.014 210.849 190.064 213.003 182.107 209.602 177.531 204.114 170.147 191.625 177.867 183.328 173.89 180.334 172.454 178.291 169.647 175.926 167.316 166.831 158.356 153.506 156.978 141.366 157.862 136.492 158.217 128.612 157.997 124.5 161.03 120.182 164.216 122.381 172.953 122.196 177.515 121.694 189.903 119.199 202.213 114.795 213.805 112.999 218.533 110.858 223.291 110.784 228.35 110.619 239.609 125.018 252.364 138.644 254.375 139.77 254.542 140.7 255.459 140.738 256.598 140.829 259.383 135.509 259.24 130.952 260.503 125.497 262.014 116.314 260.862 110.965 259.015 105.615 257.166 98.183 255.995 92.679 257.314 84.605 259.247 82.182 265.038 83.324 273.261 84.466 281.482 91.218 285.689 97.995 290.482 106.713 296.648 114.25 291.397 116.493 290.695 119.895 289.632 124.147 291.758 123.935 293.884 123.722 296.011 102.885 302.815 102.885 310.683 102.885 318.549 103.33 328.133 102.673 329.605 100.086 335.395 94.304 328.8 89.064 330.031 83.683 331.295 79.971 340.214 81.411 345.553 82.849 350.891 88.302 352.547 92.467 356.185 108.547 370.226 125.975 381.164 147.324 381.061 152.798 381.033 158.42 381.095 162.845 377.871 167.271 374.647 170.868 369.241 168.962 364.108 167.756 360.862 163.628 356.793 162.845 353.42 161.198 346.32 168.963 341.113 169.649 333.857 170.103 329.063 169.649 316.21 173.051 313.871 176.453 311.533 178.548 317.248 180.395 318.862 192.403 329.359 204.41 339.856 216.417 350.354 224.04 357.018 232.243 363.96 242.25 365.494 252.987 367.142 263.939 362.214 274.663 363.945 276.691 375.563 278.717 387.18 280.745 398.798 281.109 400.886 281.518 403.075 282.858 404.718 285.183 407.565 289.364 407.791 293.036 407.965 309.16 408.73 325.111 412.98 339.479 420.338 342.842 422.062 346.329 424.004 350.105 423.894 353.481 423.795 356.563 422.062 359.49 420.374 370.817 413.844 382.798 406.621 388.388 394.803 392.139 386.871 392.589 377.606 396.888 369.957 400.604 363.346 407.312 356.481 404.382 349.485 402.785 345.674 399.146 343.913 395.147 342.404M115.139 154.515C114.801 154.719 114.463 154.924 114.125 155.128 113.927 155.271 113.766 155.23 113.634 155.033 111.589 153.6 109.222 153.439 106.889 153.617 102.468 153.957 99.147 152.075 96.158 149.051 94.869 147.748 94.385 146.137 94.003 144.579 93.191 141.273 92.359 137.904 93.342 134.442 93.506 133.862 93.631 133.311 94.075 132.878 101.929 125.255 107.357 115.848 113.219 106.767 116.149 102.228 120.602 100.049 125.499 98.615 128.029 97.874 132.785 100.821 134.541 103.168 138.043 107.847 136.367 112.072 133.636 116.071 127.765 124.672 121.785 133.204 115.62 141.596 113.485 144.504 113.692 147.748 113.159 150.918 112.884 152.555 114.652 153.215 115.139 154.515M60.752 352.882C59.354 352.556 57.988 351.871 57.918 349.883 57.818 347.052 56.236 344.525 56.13 341.599 56.077 340.136 56.269 338.629 55.993 337.142 55.864 336.44 56.279 335.56 57.127 335.375 60.96 334.545 64.548 332.734 68.595 332.712892 70.654 332.702 71.338 333.533 71.11 335.436 70.932 336.928 70.989 338.488 70.564 339.906 69.449 343.631 71.526 347.142 71.1 350.779 70.853 352.879 70.483 355.026 67.877 355.554 65.632 356.009 62.432 353.275 60.752 352.882M45.298 344.387C44.101 341.704 43.027 338.979 42.43 336.087 41.954 333.782 43.154 332.502 45.475 332.877 50.893 333.751 51.574 334.465 52.984 339.79 54.06 343.85 54.452 348.026 55.347 352.113 55.652 353.505 55.047 354.366 53.736 354.821 52.36 355.298 51.238 355.025 50.479 353.733 49.249 351.639 48.048 349.528 46.833 347.423 46.09 346.529 45.678 345.466 45.298 344.387" mask="url(#maps_br-2-b)"/>
    <g mask="url(#maps_br-2-b)">
      <g transform="translate(-73 -57.999)">
        <path stroke="#54618C" stroke-linecap="round" stroke-linejoin="round" stroke-width="3.222" d="M523,729 L523,541.865286 C523,471.943556 538.797317,403.162556 572.612212,341.937389 L642.133631,216.059863 C648.27642,204.938748 656.543285,172.461972 659,160 L655.830918,184.672784 M656.5,220 L656.5,770 M813,50 L771.534845,118.695317 C769.763955,121.631981 768.806147,124.985023 768.759915,128.411131 L763,567 M1255,535.060158 L445.987138,535.060158 C439.373532,535.060158 432.868968,530.81991 427.060679,527.648985 C409.280671,517.935963 388.407444,501 358.097498,501 C337.827509,501 249.925863,549.584136 249.925863,549.584136 C213.637561,569.76111 185.885623,609.890781 173.313668,624.420766 L27,787 M413,520 L559.433121,520 C566.837111,520 574.13019,521.836212 580.690864,525.351949 L599,535 M526,468.5 L1261,468.5 M545,403.5 L1277,403.5 M919,754 L919,161.552138 C919,158.054289 919.94872,154.623514 921.745871,151.622212 L979,56 M953,755 L953,148.062292 C953,144.706476 953.867178,141.407657 955.518093,138.491817 L1009,44 M983.5,753 L983.5,273 M611,272.788556 L1111.80066,272.788556 C1116.20293,272.788556 1120.59519,273.052068 1124.95743,273.577111 C1137.77403,275.117569 1166.4888,278.232165 1176.2138,276.4807 C1188.87032,274.201219 1261.39763,265.083299 1266,267.362779 M785.5,753 L785.5,534 M429,566.5 L1271,566.5 M932,57 L890.904017,121.877285 C889.146132,124.652228 887.811834,127.668079 886.942472,130.827875 L885.184587,137.216441 C884.113518,141.108958 883.764563,145.163414 884.154868,149.179884 L887.471956,183 M955,56 C955,56 916.480592,111.404783 911.350048,119.943195 C906.220499,128.481607 886,178 886,178 M437,761 C437,761 450.274281,736.839076 450.274281,730 L983,730"/>
        <path fill="#54618C" d="M1137.38696,217.000702 L1267,252.872671 L1267,241.058753 C1244.38121,241.058753 1166.65539,206.608496 1145.01655,198.733551 C1123.37771,190.859607 1113.74823,156.161225 1117.68801,139.426843 C1121.6178,122.69246 1190.91408,48.1321107 1190.91408,48.1321107 L1145.01655,45.1796317 C1145.01655,45.1796317 1106.07864,125.914074 1091.31943,164.303304 C1076.56022,202.690533 1050.38163,206.608496 1039.7522,206.608496 C1029.12277,206.608496 990.016866,207.862124 965.1482,208.446417 C954.088794,208.708548 920.590592,214.580489 906.624341,203.513946 C894.241006,193.699029 900.200686,180.021178 901.98359,159.205751 C903.767495,138.392325 900.964645,107.727964 900.964645,107.727964 L896.794869,114.039125 L893.031071,147.5269 C893.031071,147.5269 885.881455,139.737999 885.802459,139.971115 C882.80162,148.870573 889.762246,163.877091 885.935452,178.236283 C882.690626,190.408381 872.100194,193.873116 871.077249,194.104232 C862.366717,196.070217 854.401144,194.994678 844.839657,194.994678 C823.686793,194.994678 805.223784,196.705535 785.528841,203.86212 C758.555288,213.667032 746.623929,218.737572 719.102406,229.816121 C702.491297,236.495467 675.575742,231.613021 667.506175,214.654526 C663.775375,206.817601 662.992417,197.915141 662.927421,189.235793 C662.583439,144.793531 666.650221,100.130158 669.101089,55.6578806 L658.123678,55.6578806 L660.952527,0 C608.799326,41.7469122 558.890004,86.7564587 503.62697,124.401316 C478.441322,141.55791 457.741433,141.780022 429.493949,136.132192 C415.977674,133.430839 401.816434,131.324784 388.056173,130.575409 C332.008181,127.521879 275.664205,126.628432 219.574215,128.278258 C177.904452,129.502872 136.140693,128.733486 94.4829291,125.881057 C73.6070495,124.452342 52.450185,125.213723 32.1022771,120.194209 C22.2598053,117.767993 10.3234459,113.566889 0,115.632924 L7.99257104,143.051659 C7.99257104,143.051659 84.1984811,140.453357 154.572704,141.764013 C164.626164,141.952108 262.020937,142.245255 268.321599,142.493379 C319.208868,144.490379 352.947057,145.531901 386.06128,146.673473 C419.174503,147.817046 467.071932,160.539419 485.342952,154.827557 C510.727589,146.888581 533.480368,129.183712 554.12426,112.740475 C573.433224,97.3587697 590.415312,77.4187812 614.891999,70.2511907 C623.862517,67.6238747 633.816983,66.8494867 642.333526,70.7004158 C665.025308,80.9585544 654.649865,128.305272 654.254886,148.938607 C654.254886,148.938607 653.365934,181.849093 648.95617,193.746053 C640.362632,216.934669 617.060882,257.995237 617.060882,257.995237 C617.060882,257.995237 638.033757,247.915188 659.155623,247.915188 C680.27449,247.915188 692.703823,247.996228 695.287684,247.915188 C702.344305,247.694077 711.802797,245.141798 738.104386,233.814124 C761.937107,223.549982 785.636835,212.489442 809.698543,206.708546 C822.881836,203.540959 836.703094,201.848111 849.990381,204.549464 C863.278668,207.248817 876.030983,214.84062 882.587631,226.717569 C888.173332,236.834637 889.796245,248.852657 889.32427,260.402443 C887.690358,300.339448 891.699142,343.960299 880.998717,383.0899 C871.214242,418.864821 842.609777,448.073452 831.328383,483.406151 C821.980884,512.682817 821.941886,544.004507 821.989884,574.739903 C822.077879,630.93005 822.167874,687.121198 822.25487,743.311345 C822.259869,746.877131 822.308867,750.618005 824.032774,753.738568 C825.757682,756.859132 829.757467,759.030219 832.973294,757.49545 C833.882245,705.010159 834.790197,652.494853 832.882299,600.038576 C831.774359,569.562309 829.779466,538.479739 837.842033,509.071008 C845.704611,480.38864 872.92915,438.428621 885.825458,411.633198 C909.179204,363.10589 902.311573,326.368487 902.311573,296.197373 C902.311573,266.029261 901.24463,246.826642 910.926111,233.165799 C918.377711,222.654534 1087.32964,221.075743 1106.65861,228.594509 C1125.97757,236.114276 1121.29782,226.457439 1162.6356,294.128337 C1203.96338,361.796234 1243.14128,413.352059 1257.10053,467.863366 L1257.10053,429.8033 C1257.10053,429.8033 1217.56265,350.834743 1197.24374,314.493538 C1176.92483,278.153335 1132.9172,222.714564 1132.9172,222.714564 C1131.20729,219.668038 1134.01714,216.068235 1137.38696,217.000702"/>
      </g>
    </g>
    <path fill="#7ECDF9" d="M770.73,580.828 C769.515,584.454 766.527,585.734 763.025,585.734 C759.762,585.734 756.948,584.792 755.595,581.555 C754.242,584.792 751.428,585.734 748.165,585.734 C744.663,585.734 741.675,584.454 740.459,580.828 C738.691,584.111 736.373,588.005 736.373,592.185 C736.373,607.845 755.595,611.436 755.595,611.436 C755.595,611.436 774.816,607.291 774.816,592.185 C774.816,588.005 772.498,584.111 770.73,580.828" mask="url(#maps_br-2-b)"/>
    <path stroke="#505A7C" stroke-width="3.222" d="M359.642,472.48 L350.035,485.62 C349.291,486.637 349.121,487.965 349.584,489.138 L380.05,566.155 C381.453,569.705 384.66,582.535 384.472,586.347 L377.276,670.901" mask="url(#maps_br-2-b)"/>
    <polygon fill="#FFFFFE" points="485.991 354.973 575.441 354.973 575.441 335.896 485.991 335.896" mask="url(#maps_br-2-b)"/>
    <text fill="#5EC1F8" font-family="NeutraText-DemiSC, Neutra Text" font-size="11.446" font-weight="400" mask="url(#maps_br-2-b)">
      <tspan x="491.572" y="348.572">lowry hill east</tspan>
    </text>
    <polygon fill="#FFFFFE" points="723.721 331.452 785.191 331.452 785.191 312.374 723.721 312.374" mask="url(#maps_br-2-b)"/>
    <polygon stroke="#EFA72D" stroke-width="1.289" points="723.721 331.452 785.191 331.452 785.191 312.374 723.721 312.374" mask="url(#maps_br-2-b)"/>
    <text fill="#EFA72D" font-family="NeutraText-DemiSC, Neutra Text" font-size="11.446" font-weight="400" mask="url(#maps_br-2-b)">
      <tspan x="729.301" y="325.05">eat street</tspan>
    </text>
    <polygon fill="#FFFFFE" points="563.387 437.798 671.067 437.798 671.067 418.721 563.387 418.721" mask="url(#maps_br-2-b)"/>
    <polygon stroke="#1DAF97" stroke-width="1.289" points="563.387 437.798 671.067 437.798 671.067 418.721 563.387 418.721" mask="url(#maps_br-2-b)"/>
    <text fill="#1DAF97" font-family="NeutraText-DemiSC, Neutra Text" font-size="11.446" font-weight="400" mask="url(#maps_br-2-b)">
      <tspan x="568.967" y="430.396">mi</tspan> <tspan x="579.131" y="430.396" letter-spacing="-.332">d</tspan> <tspan x="584.683" y="430.396" letter-spacing="-.343">t</tspan> <tspan x="589.49" y="430.396" letter-spacing="-.275">o</tspan> <tspan x="596.232" y="430.396">wn green</tspan> <tspan x="642.738" y="430.396" letter-spacing="-.846">w</tspan> <tspan x="649.481" y="430.396" letter-spacing="-.974">a</tspan> <tspan x="653.554" y="430.396">y</tspan>
    </text>
    <path fill="#69B8DB" d="M768.511,293.841 C768.511,296.885 766.043,299.352 763,299.352 C759.957,299.352 757.488,296.885 757.488,293.841 C757.488,290.797 759.957,288.329 763,288.329 C766.043,288.329 768.511,290.797 768.511,293.841" mask="url(#maps_br-2-b)"/>
    <path stroke="#FFFFFE" stroke-width="1.933" d="M768.511,293.841 C768.511,296.885 766.043,299.352 763,299.352 C759.957,299.352 757.488,296.885 757.488,293.841 C757.488,290.797 759.957,288.329 763,288.329 C766.043,288.329 768.511,290.797 768.511,293.841 Z" mask="url(#maps_br-2-b)"/>
    <line x1="763" x2="763" y1="288.329" y2="237.672" fill="#69B8DB" mask="url(#maps_br-2-b)"/>
    <line x1="763" x2="763" y1="288.329" y2="237.672" stroke="#FFFFFE" stroke-width="1.933" mask="url(#maps_br-2-b)"/>
    <text fill="#FFFFFE" font-family="NeutraText-DemiSC, Neutra Text" font-size="11.446" font-weight="400" letter-spacing=".001" mask="url(#maps_br-2-b)">
      <tspan x="296.049" y="366.604">lake of the isles</tspan>
    </text>
    <text fill="#FFFFFE" font-family="NeutraText-DemiSC, Neutra Text" font-size="11.446" font-weight="400" mask="url(#maps_br-2-b)">
      <tspan x="240.181" y="562.758">bde maka ska</tspan>
    </text>
    <line x1="712.664" x2="712.664" y1="279.045" y2="444.515" stroke="#EFA72D" stroke-linecap="round" stroke-linejoin="round" stroke-width="2.578" mask="url(#maps_br-2-b)"/>
    <line x1="712.02" x2="723.72" y1="321.913" y2="321.913" stroke="#EFA72D" stroke-width="2.578" mask="url(#maps_br-2-b)"/>
    <polyline fill="#FFFFFE" points="615.983 445.165 615.983 437.544 615.983 445.165" mask="url(#maps_br-2-b)"/>
    <line x1="615.983" x2="615.983" y1="437.544" y2="445.165" stroke="#1DAF97" stroke-width="3.222" mask="url(#maps_br-2-b)"/>
    <g mask="url(#maps_br-2-b)">
      <g transform="translate(448 476)">
        <polygon fill="#FFFFFE" points="62.482 25.283 159.477 25.283 159.477 .483 62.482 .483"/>
        <text font-family="NeutraText-DemiSC, Neutra Text" font-size="14.88" font-weight="400" letter-spacing="-.001">
          <tspan x="69.734" y="16.56" fill="#7D36FA">seven points</tspan>
        </text>
        <line x1="6.7" x2="65.513" y1="13.966" y2="13.966" stroke="#FFFFFE" stroke-width="2.513"/>
        <g transform="translate(0 4)">
          <path fill="#7D36FA" d="M9.5,19.001 C4.25267647,19.001 0,14.7469857 0,9.50186183 C0,4.256738 4.25267647,0.001 9.5,0.001 C14.7473235,0.001 19,4.256738 19,9.50186183 C19,14.7469857 14.7473235,19.001 9.5,19.001"/>
          <path stroke="#FFFFFE" stroke-width="3" d="M9.5,19.001 C4.25267647,19.001 0,14.7469857 0,9.50186183 C0,4.256738 4.25267647,0.001 9.5,0.001 C14.7473235,0.001 19,4.256738 19,9.50186183 C19,14.7469857 14.7473235,19.001 9.5,19.001 Z"/>
        </g>
      </g>
    </g>
    <polygon fill="#FFFFFE" points="602.595 578.43 653.204 578.43 653.204 559.353 602.595 559.353" mask="url(#maps_br-2-b)"/>
    <text fill="#5EC1F8" font-family="NeutraText-DemiSC, Neutra Text" font-size="11.446" font-weight="400" mask="url(#maps_br-2-b)">
      <tspan x="608.176" y="571.028">lyndale</tspan>
    </text>
    <polygon fill="#FFFFFE" points="479.976 608.497 562.297 608.497 562.297 589.42 479.976 589.42" mask="url(#maps_br-2-b)"/>
    <text fill="#5EC1F8" font-family="NeutraText-DemiSC, Neutra Text" font-size="11.446" font-weight="400" mask="url(#maps_br-2-b)">
      <tspan x="485.557" y="601.095">south u</tspan> <tspan x="524.52" y="601.095" letter-spacing="-.103">p</tspan> <tspan x="529.877" y="601.095" letter-spacing="-.332">t</tspan> <tspan x="534.695" y="601.095" letter-spacing="-.275">o</tspan> <tspan x="541.437" y="601.095">wn</tspan>
    </text>
    <path fill="#69B8DB" d="M791.452,19.805 C791.452,22.849 788.985,25.316 785.941,25.316 C782.898,25.316 780.429,22.849 780.429,19.805 C780.429,16.761 782.898,14.294 785.941,14.294 C788.985,14.294 791.452,16.761 791.452,19.805" mask="url(#maps_br-2-b)"/>
    <path stroke="#FFFFFE" stroke-width="1.933" d="M791.452,19.805 C791.452,22.849 788.985,25.316 785.941,25.316 C782.898,25.316 780.429,22.849 780.429,19.805 C780.429,16.761 782.898,14.294 785.941,14.294 C788.985,14.294 791.452,16.761 791.452,19.805 Z" mask="url(#maps_br-2-b)"/>
    <line x1="753.174" x2="783.894" y1="100.267" y2="25.646" fill="#69B8DB" mask="url(#maps_br-2-b)"/>
    <line x1="753.174" x2="783.894" y1="100.267" y2="25.646" stroke="#FFFFFE" stroke-width="1.933" mask="url(#maps_br-2-b)"/>
    <polygon fill="#FFFFFE" points="720.556 115.348 787.41 115.348 787.41 96.27 720.556 96.27" mask="url(#maps_br-2-b)"/>
    <text fill="#5EC1F8" font-family="NeutraText-DemiSC, Neutra Text" font-size="11.446" font-weight="400" mask="url(#maps_br-2-b)">
      <tspan x="726.137" y="108.947">downtown</tspan>
    </text>
    <polyline fill="#69B8DB" points="458.473 490.129 503.714 490.129 458.473 490.129" mask="url(#maps_br-2-b)"/>
    <polygon fill="#FFFFFE" points="649.379 354.875 703.218 354.875 703.218 335.798 649.379 335.798" mask="url(#maps_br-2-b)"/>
    <text fill="#5EC1F8" font-family="NeutraText-DemiSC, Neutra Text" font-size="11.446" font-weight="400" mask="url(#maps_br-2-b)">
      <tspan x="654.958" y="348.473">whittier</tspan>
    </text>
    <polygon fill="#FFFFFE" points="937.411 355.863 986.55 355.863 986.55 336.785 937.411 336.785" mask="url(#maps_br-2-b)"/>
    <text fill="#5EC1F8" font-family="NeutraText-DemiSC, Neutra Text" font-size="11.446" font-weight="400" mask="url(#maps_br-2-b)">
      <tspan x="942.992" y="348.461">phillips</tspan>
    </text>
    <polygon fill="#FFFFFE" points="676.882 205.782 765.052 205.782 765.052 186.704 676.882 186.704" mask="url(#maps_br-2-b)"/>
    <text fill="#5EC1F8" font-family="NeutraText-DemiSC, Neutra Text" font-size="11.446" font-weight="400" mask="url(#maps_br-2-b)">
      <tspan x="682.461" y="199.38">stevens square</tspan>
    </text>
    <polygon fill="#FFFFFE" points="762.005 254.684 920.287 254.684 920.287 235.606 762.005 235.606" mask="url(#maps_br-2-b)"/>
    <text fill="#5EC1F8" font-family="NeutraText-DemiSC, Neutra Text" font-size="11.446" font-weight="400" mask="url(#maps_br-2-b)">
      <tspan x="769.595" y="248.242">minneapolis institute of art</tspan>
    </text>
    <path stroke="#1DAF97" stroke-linecap="round" stroke-linejoin="round" stroke-width="2.578" d="M349.784,432.121 C391.299,444.237 440.008,446.844 507.216,445.165 C576.295,443.439 821.91,445.165 821.91,445.165" mask="url(#maps_br-2-b)"/>
    <path fill="#69B8DB" d="M443.202,453.186 C443.202,456.23 440.733,458.697 437.69,458.697 C434.646,458.697 432.179,456.23 432.179,453.186 C432.179,450.142 434.646,447.675 437.69,447.675 C440.733,447.675 443.202,450.142 443.202,453.186" mask="url(#maps_br-2-b)"/>
    <path stroke="#FFFFFE" stroke-width="1.933" d="M443.202,453.186 C443.202,456.23 440.733,458.697 437.69,458.697 C434.646,458.697 432.179,456.23 432.179,453.186 C432.179,450.142 434.646,447.675 437.69,447.675 C440.733,447.675 443.202,450.142 443.202,453.186 Z" mask="url(#maps_br-2-b)"/>
    <line x1="437.69" x2="437.69" y1="447.675" y2="397.018" fill="#69B8DB" mask="url(#maps_br-2-b)"/>
    <line x1="437.69" x2="437.69" y1="447.675" y2="397.018" stroke="#FFFFFE" stroke-width="1.933" mask="url(#maps_br-2-b)"/>
    <polygon fill="#FFFFFE" points="437.06 412.701 523.967 412.701 523.967 393.623 437.06 393.623" mask="url(#maps_br-2-b)"/>
    <text fill="#5EC1F8" font-family="NeutraText-DemiSC, Neutra Text" font-size="11.446" font-weight="400" mask="url(#maps_br-2-b)">
      <tspan x="442.641" y="405.874">walker library</tspan>
    </text>
    <text fill="#FFFFFE" font-family="NeutraText-DemiSC, Neutra Text" font-size="17.756" font-weight="400" mask="url(#maps_br-2-b)">
      <tspan x="740.618" y="601.049">35w</tspan>
    </text>
    <path fill="#83C6E3" d="M696.619,146.902 C695.404,150.529 692.416,151.809 688.914,151.809 C685.651,151.809 682.837,150.866 681.484,147.628 C680.131,150.866 677.317,151.809 674.054,151.809 C670.552,151.809 667.564,150.529 666.348,146.902 C664.58,150.186 662.262,154.079 662.262,158.259 C662.262,173.918 681.484,177.511 681.484,177.511 C681.484,177.511 700.705,173.365 700.705,158.259 C700.705,154.079 698.387,150.186 696.619,146.902" mask="url(#maps_br-2-b)"/>
    <text fill="#FFFFFE" font-family="NeutraText-DemiSC, Neutra Text" font-size="19.519" font-weight="400" letter-spacing="-.034" mask="url(#maps_br-2-b)">
      <tspan x="671.954" y="167.983">94</tspan>
    </text>
    <path fill="#7ECDF9" d="M320.458,65.74 C319.243,69.366 316.255,70.646 312.752,70.646 C309.49,70.646 306.676,69.703 305.323,66.466 C303.97,69.703 301.155,70.646 297.893,70.646 C294.391,70.646 291.403,69.366 290.187,65.74 C288.419,69.023 286.101,72.916 286.101,77.096 C286.101,92.756 305.323,96.348 305.323,96.348 C305.323,96.348 324.544,92.202 324.544,77.096 C324.544,72.916 322.226,69.023 320.458,65.74" mask="url(#maps_br-2-b)"/>
    <text fill="#FFFFFE" font-family="NeutraText-DemiSC, Neutra Text" font-size="19.519" font-weight="400" letter-spacing="-.01" mask="url(#maps_br-2-b)">
      <tspan x="291.281" y="85.82">3</tspan> <tspan x="300.113" y="85.82" letter-spacing="-.478">9</tspan> <tspan x="308.34" y="85.82">4</tspan>
    </text>
    <text fill="#FFFFFE" font-family="Rift-Demi, Rift" font-size="32" font-weight="400" letter-spacing="3.412" mask="url(#maps_br-2-b)">
      <tspan x="253.45" y="157.56">k</tspan> <tspan x="270.622" y="157.56" letter-spacing="3.648">e</tspan> <tspan x="286.718" y="157.56" letter-spacing="3.04">y</tspan> <tspan x="302.686" y="157.56"> </tspan> <tspan x="311.218" y="157.56" letter-spacing="4.032">l</tspan> <tspan x="326.578" y="157.56" letter-spacing="3.392">a</tspan> <tspan x="343.539" y="157.56" letter-spacing="2.72">n</tspan> <tspan x="361.267" y="157.56" letter-spacing="2.752">d</tspan> <tspan x="378.452" y="157.56">ma</tspan> <tspan x="417.883" y="157.56" letter-spacing="3.168">r</tspan> <tspan x="435.483" y="157.56">ks</tspan>
    </text>
  </g>
</svg>
