<svg xmlns="http://www.w3.org/2000/svg" xmlns:xlink="http://www.w3.org/1999/xlink" width="1128" height="608" viewBox="0 0 1128 608">
  <defs>
    <polygon id="maps_br-4-a" points="0 608 1128 608 1128 0 0 0"/>
    <polygon id="maps_br-4-c" points=".687 .291 208.381 .291 208.381 248 .687 248"/>
  </defs>
  <g fill="none" fill-rule="evenodd" transform="translate(0 -.001)">
    <mask id="maps_br-4-b" fill="#fff">
      <use xlink:href="#maps_br-4-a"/>
    </mask>
    <use fill="#000" xlink:href="#maps_br-4-a"/>
    <g mask="url(#maps_br-4-b)">
      <g transform="translate(169 428.001)">
        <mask id="maps_br-4-d" fill="#fff">
          <use xlink:href="#maps_br-4-c"/>
        </mask>
        <path fill="#3B58AE" d="M191.188,246.971 C190.303,247.505 189.012,247.693 187.932,247.692 C139.337,247.675 90.744,247.656 42.149,247.639 C37.876,247.637 6.903,256.704 10.998,228.07 C12.823,215.308 7.594,202.649 4.735,190.077 C-2.564,157.983 0.064,123.705 12.17,93.1 C29.037,50.458 66.935,8.832 114.026,1.161 C114.803,1.035 115.581,0.92 116.361,0.819 C131.75,-1.187 148.559,2.412 159.471,13.447 C167.575,21.643 171.625,32.896 175.526,43.742 C187.228,76.271 201.798,100.041 207.432,134.148 C213.066,168.257 191.792,246.606 191.188,246.971" mask="url(#maps_br-4-d)"/>
      </g>
    </g>
    <path fill="#395192" d="M347.46,418.586 C347.946,417.1 348.038,415.566 348.003,414.019 C348.07,413.917 348.137,413.816 348.202,413.714 C349.368,413.107 350.49,412.73 351.225,414.312 C350.433,416.318 351.2,418.347 351.159,420.362 C351.241,422.897 353.118,424.73 353.776,427.044 C353.833,427.308 353.841,427.568 353.81,427.834 C352.485,432.977 350.686,434.658 345.471,434.818 C342.906,434.897 340.385,435.539 337.81,435.275 C337.486,435.105 337.162,434.935 336.838,434.765 C333.128,430.021 327.023,429.22 322.392,425.992 C321.912,425.658 321.312,425.515 320.886,425.081 C319.865,424.255 318.493,423.636 319.145,421.884 C319.774,420.195 321.762,418.948 323.811,419.181 C328.484,419.705 333.123,420.479 337.78,421.119 C338.529,421.223 339.308,421.23 340.022,421.426 C343.22,422.303 345.786,421.645 347.46,418.586" mask="url(#maps_br-4-b)"/>
    <path fill="#3B58AE" d="M395.147 322.404C391.486 321.022 387.521 319.854 384.546 317.517 377.486 311.971 377.58 301.303 379.446 292.521 381.67 282.058 385.489 271.935 390.729 262.609 396.347 252.615 403.885 242.272 402.176 230.935 400.135 217.389 386.084 209.527 378.509 198.063 377.558 196.621 375.416 196.651 374.553 198.146 372.6 201.52 372.181 205.835 372.757 209.774 373.512 214.949 375.694 219.79 377.145 224.814 383.829 247.942 374.66 272.498 364.124 294.144 362.145 298.209 359.381 301.074 355.945 304.014 352.508 306.952 346.454 308.283 342.423 306.236 334.905 302.415 333.103 289.38 328.344 289.977 325.001 290.394 320.412 292.355 318.628 290.372 316.738 288.272 316.298 282.313 318.43 280.457 323.757 275.82 322.42 271.023 317.24 266.379 312.914 262.5 306.779 260.057 303.779 265.032 300.087 271.154 304.196 281.04 299.22 286.172 294.474 291.066 285.206 288.062 280.3 292.794 277.63 295.371 277.164 299.415 276.856 303.114 275.872 314.957 274.888 326.8 273.902 338.643 261.505 329.044 243.787 332.241 228.586 328.398 209.761 323.64 195.722 308.317 183.229 293.452 181.832 291.788 180.378 289.986 180.133 287.826 179.791 284.806 181.89 282.094 184.003 279.907 192.268 271.352 203.558 263.126 203.424 251.232 203.287 239.003 190.777 230.23 188.679 218.106 188.524 217.209 188.583 216.27 188.99 215.454 190.269 212.895 193.44 213.52 196.01 213.733 203.435 214.352 210.457 209.481 214.528 203.239 218.599 196.998 220.286 189.545 221.88 182.266 222.371 180.024 222.764 177.389 221.223 175.689 219.843 174.166 217.488 174.077 215.728 173.014 210.849 170.064 213.003 162.107 209.602 157.531 204.114 150.147 191.625 157.867 183.328 153.89 180.334 152.454 178.291 149.647 175.926 147.316 166.831 138.356 153.506 136.978 141.366 137.862 136.492 138.217 128.612 137.997 124.5 141.03 120.182 144.216 122.381 152.953 122.196 157.515 121.694 169.903 119.199 182.213 114.795 193.805 112.999 198.533 110.858 203.291 110.784 208.35 110.619 219.609 125.018 232.364 138.644 234.375 139.77 234.542 140.7 235.459 140.738 236.598 140.829 239.383 135.509 239.24 130.952 240.503 125.497 242.014 116.314 240.862 110.965 239.015 105.615 237.166 98.183 235.995 92.679 237.314 84.605 239.247 82.182 245.038 83.324 253.261 84.466 261.482 91.218 265.689 97.995 270.482 106.713 276.648 114.25 271.397 116.493 270.695 119.895 269.632 124.147 271.758 123.935 273.884 123.722 276.011 102.885 282.815 102.885 290.683 102.885 298.549 103.33 308.133 102.673 309.605 100.086 315.395 94.304 308.8 89.064 310.031 83.683 311.295 79.971 320.214 81.411 325.553 82.849 330.891 88.302 332.547 92.467 336.185 108.547 350.226 125.975 361.164 147.324 361.061 152.798 361.033 158.42 361.095 162.845 357.871 167.271 354.647 170.868 349.241 168.962 344.108 167.756 340.862 163.628 336.793 162.845 333.42 161.198 326.32 168.963 321.113 169.649 313.857 170.103 309.063 169.649 296.21 173.051 293.871 176.453 291.533 178.548 297.248 180.395 298.862 192.403 309.359 204.41 319.856 216.417 330.354 224.04 337.018 232.243 343.96 242.25 345.494 252.987 347.142 263.939 342.214 274.663 343.945 276.691 355.563 278.717 367.18 280.745 378.798 281.109 380.886 281.518 383.075 282.858 384.718 285.183 387.565 289.364 387.791 293.036 387.965 309.16 388.73 325.111 392.98 339.479 400.338 342.842 402.062 346.329 404.004 350.105 403.894 353.481 403.795 356.563 402.062 359.49 400.374 370.817 393.844 382.798 386.621 388.388 374.803 392.139 366.871 392.589 357.606 396.888 349.957 400.604 343.346 407.312 336.481 404.382 329.485 402.785 325.674 399.146 323.913 395.147 322.404M115.139 134.515C114.801 134.719 114.463 134.924 114.125 135.128 113.927 135.271 113.766 135.23 113.634 135.033 111.589 133.6 109.222 133.439 106.889 133.617 102.468 133.957 99.147 132.075 96.158 129.051 94.869 127.748 94.385 126.137 94.003 124.579 93.191 121.273 92.359 117.904 93.342 114.442 93.506 113.862 93.631 113.311 94.075 112.878 101.929 105.255 107.357 95.848 113.219 86.767 116.149 82.228 120.602 80.049 125.499 78.615 128.029 77.874 132.785 80.821 134.541 83.168 138.043 87.847 136.367 92.072 133.636 96.071 127.765 104.672 121.785 113.204 115.62 121.596 113.485 124.504 113.692 127.748 113.159 130.918 112.884 132.555 114.652 133.215 115.139 134.515M60.752 332.882C59.354 332.556 57.988 331.871 57.918 329.883 57.818 327.052 56.236 324.525 56.13 321.599 56.077 320.136 56.269 318.629 55.993 317.142 55.864 316.44 56.279 315.56 57.127 315.375 60.96 314.545 64.548 312.734 68.595 312.712892 70.654 312.702 71.338 313.533 71.11 315.436 70.932 316.928 70.989 318.488 70.564 319.906 69.449 323.631 71.526 327.142 71.1 330.779 70.853 332.879 70.483 335.026 67.877 335.554 65.632 336.009 62.432 333.275 60.752 332.882M45.298 324.387C44.101 321.704 43.027 318.979 42.43 316.087 41.954 313.782 43.154 312.502 45.475 312.877 50.893 313.751 51.574 314.465 52.984 319.79 54.06 323.85 54.452 328.026 55.347 332.113 55.652 333.505 55.047 334.366 53.736 334.821 52.36 335.298 51.238 335.025 50.479 333.733 49.249 331.639 48.048 329.528 46.833 327.423 46.09 326.529 45.678 325.466 45.298 324.387" mask="url(#maps_br-4-b)"/>
    <g mask="url(#maps_br-4-b)">
      <g transform="translate(-73 -77.999)">
        <path stroke="#54618C" stroke-linecap="round" stroke-linejoin="round" stroke-width="3.222" d="M523,729 L523,541.865286 C523,471.943556 538.797317,403.162556 572.612212,341.937389 L642.133631,216.059863 C648.27642,204.938748 656.543285,172.461972 659,160 L655.830918,184.672784 M656.5,220 L656.5,770 M813,50 L771.534845,118.695317 C769.763955,121.631981 768.806147,124.985023 768.759915,128.411131 L763,567 M1255,535.060158 L445.987138,535.060158 C439.373532,535.060158 432.868968,530.81991 427.060679,527.648985 C409.280671,517.935963 388.407444,501 358.097498,501 C337.827509,501 249.925863,549.584136 249.925863,549.584136 C213.637561,569.76111 185.885623,609.890781 173.313668,624.420766 L27,787 M413,520 L559.433121,520 C566.837111,520 574.13019,521.836212 580.690864,525.351949 L599,535 M526,468.5 L1261,468.5 M545,403.5 L1277,403.5 M919,754 L919,161.552138 C919,158.054289 919.94872,154.623514 921.745871,151.622212 L979,56 M953,755 L953,148.062292 C953,144.706476 953.867178,141.407657 955.518093,138.491817 L1009,44 M983.5,753 L983.5,273 M611,272.788556 L1111.80066,272.788556 C1116.20293,272.788556 1120.59519,273.052068 1124.95743,273.577111 C1137.77403,275.117569 1166.4888,278.232165 1176.2138,276.4807 C1188.87032,274.201219 1261.39763,265.083299 1266,267.362779 M785.5,753 L785.5,534 M429,566.5 L1271,566.5 M932,57 L890.904017,121.877285 C889.146132,124.652228 887.811834,127.668079 886.942472,130.827875 L885.184587,137.216441 C884.113518,141.108958 883.764563,145.163414 884.154868,149.179884 L887.471956,183 M955,56 C955,56 916.480592,111.404783 911.350048,119.943195 C906.220499,128.481607 886,178 886,178 M437,761 C437,761 450.274281,736.839076 450.274281,730 L983,730"/>
        <path fill="#54618C" d="M1137.38696,217.000702 L1267,252.872671 L1267,241.058753 C1244.38121,241.058753 1166.65539,206.608496 1145.01655,198.733551 C1123.37771,190.859607 1113.74823,156.161225 1117.68801,139.426843 C1121.6178,122.69246 1190.91408,48.1321107 1190.91408,48.1321107 L1145.01655,45.1796317 C1145.01655,45.1796317 1106.07864,125.914074 1091.31943,164.303304 C1076.56022,202.690533 1050.38163,206.608496 1039.7522,206.608496 C1029.12277,206.608496 990.016866,207.862124 965.1482,208.446417 C954.088794,208.708548 920.590592,214.580489 906.624341,203.513946 C894.241006,193.699029 900.200686,180.021178 901.98359,159.205751 C903.767495,138.392325 900.964645,107.727964 900.964645,107.727964 L896.794869,114.039125 L893.031071,147.5269 C893.031071,147.5269 885.881455,139.737999 885.802459,139.971115 C882.80162,148.870573 889.762246,163.877091 885.935452,178.236283 C882.690626,190.408381 872.100194,193.873116 871.077249,194.104232 C862.366717,196.070217 854.401144,194.994678 844.839657,194.994678 C823.686793,194.994678 805.223784,196.705535 785.528841,203.86212 C758.555288,213.667032 746.623929,218.737572 719.102406,229.816121 C702.491297,236.495467 675.575742,231.613021 667.506175,214.654526 C663.775375,206.817601 662.992417,197.915141 662.927421,189.235793 C662.583439,144.793531 666.650221,100.130158 669.101089,55.6578806 L658.123678,55.6578806 L660.952527,0 C608.799326,41.7469122 558.890004,86.7564587 503.62697,124.401316 C478.441322,141.55791 457.741433,141.780022 429.493949,136.132192 C415.977674,133.430839 401.816434,131.324784 388.056173,130.575409 C332.008181,127.521879 275.664205,126.628432 219.574215,128.278258 C177.904452,129.502872 136.140693,128.733486 94.4829291,125.881057 C73.6070495,124.452342 52.450185,125.213723 32.1022771,120.194209 C22.2598053,117.767993 10.3234459,113.566889 0,115.632924 L7.99257104,143.051659 C7.99257104,143.051659 84.1984811,140.453357 154.572704,141.764013 C164.626164,141.952108 262.020937,142.245255 268.321599,142.493379 C319.208868,144.490379 352.947057,145.531901 386.06128,146.673473 C419.174503,147.817046 467.071932,160.539419 485.342952,154.827557 C510.727589,146.888581 533.480368,129.183712 554.12426,112.740475 C573.433224,97.3587697 590.415312,77.4187812 614.891999,70.2511907 C623.862517,67.6238747 633.816983,66.8494867 642.333526,70.7004158 C665.025308,80.9585544 654.649865,128.305272 654.254886,148.938607 C654.254886,148.938607 653.365934,181.849093 648.95617,193.746053 C640.362632,216.934669 617.060882,257.995237 617.060882,257.995237 C617.060882,257.995237 638.033757,247.915188 659.155623,247.915188 C680.27449,247.915188 692.703823,247.996228 695.287684,247.915188 C702.344305,247.694077 711.802797,245.141798 738.104386,233.814124 C761.937107,223.549982 785.636835,212.489442 809.698543,206.708546 C822.881836,203.540959 836.703094,201.848111 849.990381,204.549464 C863.278668,207.248817 876.030983,214.84062 882.587631,226.717569 C888.173332,236.834637 889.796245,248.852657 889.32427,260.402443 C887.690358,300.339448 891.699142,343.960299 880.998717,383.0899 C871.214242,418.864821 842.609777,448.073452 831.328383,483.406151 C821.980884,512.682817 821.941886,544.004507 821.989884,574.739903 C822.077879,630.93005 822.167874,687.121198 822.25487,743.311345 C822.259869,746.877131 822.308867,750.618005 824.032774,753.738568 C825.757682,756.859132 829.757467,759.030219 832.973294,757.49545 C833.882245,705.010159 834.790197,652.494853 832.882299,600.038576 C831.774359,569.562309 829.779466,538.479739 837.842033,509.071008 C845.704611,480.38864 872.92915,438.428621 885.825458,411.633198 C909.179204,363.10589 902.311573,326.368487 902.311573,296.197373 C902.311573,266.029261 901.24463,246.826642 910.926111,233.165799 C918.377711,222.654534 1087.32964,221.075743 1106.65861,228.594509 C1125.97757,236.114276 1121.29782,226.457439 1162.6356,294.128337 C1203.96338,361.796234 1243.14128,413.352059 1257.10053,467.863366 L1257.10053,429.8033 C1257.10053,429.8033 1217.56265,350.834743 1197.24374,314.493538 C1176.92483,278.153335 1132.9172,222.714564 1132.9172,222.714564 C1131.20729,219.668038 1134.01714,216.068235 1137.38696,217.000702"/>
      </g>
    </g>
    <path fill="#7ECDF9" d="M770.73,560.828 C769.515,564.454 766.527,565.734 763.025,565.734 C759.762,565.734 756.948,564.792 755.595,561.555 C754.242,564.792 751.428,565.734 748.165,565.734 C744.663,565.734 741.675,564.454 740.459,560.828 C738.691,564.111 736.373,568.005 736.373,572.185 C736.373,587.845 755.595,591.436 755.595,591.436 C755.595,591.436 774.816,587.291 774.816,572.185 C774.816,568.005 772.498,564.111 770.73,560.828" mask="url(#maps_br-4-b)"/>
    <path stroke="#505A7C" stroke-width="3.222" d="M359.642,452.48 L350.035,465.62 C349.291,466.637 349.121,467.965 349.584,469.138 L380.05,546.155 C381.453,549.705 384.66,562.535 384.472,566.347 L377.276,650.901" mask="url(#maps_br-4-b)"/>
    <polygon fill="#FFFFFE" points="485.991 334.973 575.441 334.973 575.441 315.896 485.991 315.896" mask="url(#maps_br-4-b)"/>
    <text fill="#5EC1F8" font-family="NeutraText-DemiSC, Neutra Text" font-size="11.446" font-weight="400" mask="url(#maps_br-4-b)">
      <tspan x="491.572" y="328.572">lowry hill east</tspan>
    </text>
    <polygon fill="#FFFFFE" points="723.721 311.452 785.191 311.452 785.191 292.374 723.721 292.374" mask="url(#maps_br-4-b)"/>
    <polygon stroke="#EFA72D" stroke-width="1.289" points="723.721 311.452 785.191 311.452 785.191 292.374 723.721 292.374" mask="url(#maps_br-4-b)"/>
    <text fill="#EFA72D" font-family="NeutraText-DemiSC, Neutra Text" font-size="11.446" font-weight="400" mask="url(#maps_br-4-b)">
      <tspan x="729.301" y="305.05">eat street</tspan>
    </text>
    <polygon fill="#FFFFFE" points="563.387 417.798 671.067 417.798 671.067 398.721 563.387 398.721" mask="url(#maps_br-4-b)"/>
    <polygon stroke="#1DAF97" stroke-width="1.289" points="563.387 417.798 671.067 417.798 671.067 398.721 563.387 398.721" mask="url(#maps_br-4-b)"/>
    <text fill="#1DAF97" font-family="NeutraText-DemiSC, Neutra Text" font-size="11.446" font-weight="400" mask="url(#maps_br-4-b)">
      <tspan x="568.967" y="410.396">mi</tspan> <tspan x="579.131" y="410.396" letter-spacing="-.332">d</tspan> <tspan x="584.683" y="410.396" letter-spacing="-.343">t</tspan> <tspan x="589.49" y="410.396" letter-spacing="-.275">o</tspan> <tspan x="596.232" y="410.396">wn green</tspan> <tspan x="642.738" y="410.396" letter-spacing="-.846">w</tspan> <tspan x="649.481" y="410.396" letter-spacing="-.974">a</tspan> <tspan x="653.554" y="410.396">y</tspan>
    </text>
    <path fill="#69B8DB" d="M768.511,273.841 C768.511,276.885 766.043,279.352 763,279.352 C759.957,279.352 757.488,276.885 757.488,273.841 C757.488,270.797 759.957,268.329 763,268.329 C766.043,268.329 768.511,270.797 768.511,273.841" mask="url(#maps_br-4-b)"/>
    <path stroke="#FFFFFE" stroke-width="1.933" d="M768.511,273.841 C768.511,276.885 766.043,279.352 763,279.352 C759.957,279.352 757.488,276.885 757.488,273.841 C757.488,270.797 759.957,268.329 763,268.329 C766.043,268.329 768.511,270.797 768.511,273.841 Z" mask="url(#maps_br-4-b)"/>
    <line x1="763" x2="763" y1="268.329" y2="217.672" fill="#69B8DB" mask="url(#maps_br-4-b)"/>
    <line x1="763" x2="763" y1="268.329" y2="217.672" stroke="#FFFFFE" stroke-width="1.933" mask="url(#maps_br-4-b)"/>
    <text fill="#FFFFFE" font-family="NeutraText-DemiSC, Neutra Text" font-size="11.446" font-weight="400" letter-spacing=".001" mask="url(#maps_br-4-b)">
      <tspan x="296.049" y="346.604">lake of the isles</tspan>
    </text>
    <text fill="#FFFFFE" font-family="NeutraText-DemiSC, Neutra Text" font-size="11.446" font-weight="400" mask="url(#maps_br-4-b)">
      <tspan x="240.181" y="542.758">bde maka ska</tspan>
    </text>
    <line x1="712.664" x2="712.664" y1="259.045" y2="424.515" stroke="#EFA72D" stroke-linecap="round" stroke-linejoin="round" stroke-width="2.578" mask="url(#maps_br-4-b)"/>
    <line x1="712.02" x2="723.72" y1="301.913" y2="301.913" stroke="#EFA72D" stroke-width="2.578" mask="url(#maps_br-4-b)"/>
    <polyline fill="#FFFFFE" points="615.983 425.165 615.983 417.544 615.983 425.165" mask="url(#maps_br-4-b)"/>
    <line x1="615.983" x2="615.983" y1="417.544" y2="425.165" stroke="#1DAF97" stroke-width="3.222" mask="url(#maps_br-4-b)"/>
    <g mask="url(#maps_br-4-b)">
      <g transform="translate(448 456)">
        <polygon fill="#FFFFFE" points="62.482 25.283 159.477 25.283 159.477 .483 62.482 .483"/>
        <text font-family="NeutraText-DemiSC, Neutra Text" font-size="14.88" font-weight="400" letter-spacing="-.001">
          <tspan x="69.734" y="16.56" fill="#7D36FA">seven points</tspan>
        </text>
        <line x1="6.7" x2="65.513" y1="13.966" y2="13.966" stroke="#FFFFFE" stroke-width="2.513"/>
        <g transform="translate(0 4)">
          <path fill="#7D36FA" d="M9.5,19.001 C4.25267647,19.001 0,14.7469857 0,9.50186183 C0,4.256738 4.25267647,0.001 9.5,0.001 C14.7473235,0.001 19,4.256738 19,9.50186183 C19,14.7469857 14.7473235,19.001 9.5,19.001"/>
          <path stroke="#FFFFFE" stroke-width="3" d="M9.5,19.001 C4.25267647,19.001 0,14.7469857 0,9.50186183 C0,4.256738 4.25267647,0.001 9.5,0.001 C14.7473235,0.001 19,4.256738 19,9.50186183 C19,14.7469857 14.7473235,19.001 9.5,19.001 Z"/>
        </g>
      </g>
    </g>
    <polygon fill="#FFFFFE" points="602.595 558.43 653.204 558.43 653.204 539.353 602.595 539.353" mask="url(#maps_br-4-b)"/>
    <text fill="#5EC1F8" font-family="NeutraText-DemiSC, Neutra Text" font-size="11.446" font-weight="400" mask="url(#maps_br-4-b)">
      <tspan x="608.176" y="551.028">lyndale</tspan>
    </text>
    <polygon fill="#FFFFFE" points="479.976 588.497 562.297 588.497 562.297 569.42 479.976 569.42" mask="url(#maps_br-4-b)"/>
    <text fill="#5EC1F8" font-family="NeutraText-DemiSC, Neutra Text" font-size="11.446" font-weight="400" mask="url(#maps_br-4-b)">
      <tspan x="485.557" y="581.095">south u</tspan> <tspan x="524.52" y="581.095" letter-spacing="-.103">p</tspan> <tspan x="529.877" y="581.095" letter-spacing="-.332">t</tspan> <tspan x="534.695" y="581.095" letter-spacing="-.275">o</tspan> <tspan x="541.437" y="581.095">wn</tspan>
    </text>
    <path fill="#69B8DB" d="M783.452,19.805 C783.452,22.849 780.985,25.316 777.941,25.316 C774.898,25.316 772.429,22.849 772.429,19.805 C772.429,16.761 774.898,14.294 777.941,14.294 C780.985,14.294 783.452,16.761 783.452,19.805" mask="url(#maps_br-4-b)"/>
    <path stroke="#FFFFFE" stroke-width="1.933" d="M783.452,19.805 C783.452,22.849 780.985,25.316 777.941,25.316 C774.898,25.316 772.429,22.849 772.429,19.805 C772.429,16.761 774.898,14.294 777.941,14.294 C780.985,14.294 783.452,16.761 783.452,19.805 Z" mask="url(#maps_br-4-b)"/>
    <line x1="753.174" x2="783.894" y1="80.267" y2="5.646" fill="#69B8DB" mask="url(#maps_br-4-b)"/>
    <line x1="745.174" x2="775.894" y1="100.267" y2="25.646" stroke="#FFFFFE" stroke-width="1.933" mask="url(#maps_br-4-b)"/>
    <polygon fill="#FFFFFE" points="712.556 115.348 779.41 115.348 779.41 96.27 712.556 96.27" mask="url(#maps_br-4-b)"/>
    <text fill="#5EC1F8" font-family="NeutraText-DemiSC, Neutra Text" font-size="11.446" font-weight="400" mask="url(#maps_br-4-b)">
      <tspan x="718.137" y="108.947">downtown</tspan>
    </text>
    <polyline fill="#69B8DB" points="458.473 470.129 503.714 470.129 458.473 470.129" mask="url(#maps_br-4-b)"/>
    <polygon fill="#FFFFFE" points="649.379 334.875 703.218 334.875 703.218 315.798 649.379 315.798" mask="url(#maps_br-4-b)"/>
    <text fill="#5EC1F8" font-family="NeutraText-DemiSC, Neutra Text" font-size="11.446" font-weight="400" mask="url(#maps_br-4-b)">
      <tspan x="654.958" y="328.473">whittier</tspan>
    </text>
    <polygon fill="#FFFFFE" points="937.411 335.863 986.55 335.863 986.55 316.785 937.411 316.785" mask="url(#maps_br-4-b)"/>
    <text fill="#5EC1F8" font-family="NeutraText-DemiSC, Neutra Text" font-size="11.446" font-weight="400" mask="url(#maps_br-4-b)">
      <tspan x="942.992" y="328.461">phillips</tspan>
    </text>
    <polygon fill="#FFFFFE" points="676.882 185.782 765.052 185.782 765.052 166.704 676.882 166.704" mask="url(#maps_br-4-b)"/>
    <text fill="#5EC1F8" font-family="NeutraText-DemiSC, Neutra Text" font-size="11.446" font-weight="400" mask="url(#maps_br-4-b)">
      <tspan x="682.461" y="179.38">stevens square</tspan>
    </text>
    <polygon fill="#FFFFFE" points="762.005 234.684 920.287 234.684 920.287 215.606 762.005 215.606" mask="url(#maps_br-4-b)"/>
    <text fill="#5EC1F8" font-family="NeutraText-DemiSC, Neutra Text" font-size="11.446" font-weight="400" mask="url(#maps_br-4-b)">
      <tspan x="769.595" y="228.242">minneapolis institute of art</tspan>
    </text>
    <path stroke="#1DAF97" stroke-linecap="round" stroke-linejoin="round" stroke-width="2.578" d="M349.784,412.121 C391.299,424.237 440.008,426.844 507.216,425.165 C576.295,423.439 821.91,425.165 821.91,425.165" mask="url(#maps_br-4-b)"/>
    <path fill="#69B8DB" d="M443.202,433.186 C443.202,436.23 440.733,438.697 437.69,438.697 C434.646,438.697 432.179,436.23 432.179,433.186 C432.179,430.142 434.646,427.675 437.69,427.675 C440.733,427.675 443.202,430.142 443.202,433.186" mask="url(#maps_br-4-b)"/>
    <path stroke="#FFFFFE" stroke-width="1.933" d="M443.202,433.186 C443.202,436.23 440.733,438.697 437.69,438.697 C434.646,438.697 432.179,436.23 432.179,433.186 C432.179,430.142 434.646,427.675 437.69,427.675 C440.733,427.675 443.202,430.142 443.202,433.186 Z" mask="url(#maps_br-4-b)"/>
    <line x1="437.69" x2="437.69" y1="427.675" y2="377.018" fill="#69B8DB" mask="url(#maps_br-4-b)"/>
    <line x1="437.69" x2="437.69" y1="427.675" y2="377.018" stroke="#FFFFFE" stroke-width="1.933" mask="url(#maps_br-4-b)"/>
    <polygon fill="#FFFFFE" points="437.06 392.701 523.967 392.701 523.967 373.623 437.06 373.623" mask="url(#maps_br-4-b)"/>
    <text fill="#5EC1F8" font-family="NeutraText-DemiSC, Neutra Text" font-size="11.446" font-weight="400" mask="url(#maps_br-4-b)">
      <tspan x="442.641" y="385.874">walker library</tspan>
    </text>
    <text fill="#FFFFFE" font-family="NeutraText-DemiSC, Neutra Text" font-size="17.756" font-weight="400" mask="url(#maps_br-4-b)">
      <tspan x="740.618" y="581.049">35w</tspan>
    </text>
    <path fill="#83C6E3" d="M696.619,126.902 C695.404,130.529 692.416,131.809 688.914,131.809 C685.651,131.809 682.837,130.866 681.484,127.628 C680.131,130.866 677.317,131.809 674.054,131.809 C670.552,131.809 667.564,130.529 666.348,126.902 C664.58,130.186 662.262,134.079 662.262,138.259 C662.262,153.918 681.484,157.511 681.484,157.511 C681.484,157.511 700.705,153.365 700.705,138.259 C700.705,134.079 698.387,130.186 696.619,126.902" mask="url(#maps_br-4-b)"/>
    <text fill="#FFFFFE" font-family="NeutraText-DemiSC, Neutra Text" font-size="19.519" font-weight="400" letter-spacing="-.034" mask="url(#maps_br-4-b)">
      <tspan x="671.954" y="147.983">94</tspan>
    </text>
    <path fill="#7ECDF9" d="M320.458,45.74 C319.243,49.366 316.255,50.646 312.752,50.646 C309.49,50.646 306.676,49.703 305.323,46.466 C303.97,49.703 301.155,50.646 297.893,50.646 C294.391,50.646 291.403,49.366 290.187,45.74 C288.419,49.023 286.101,52.916 286.101,57.096 C286.101,72.756 305.323,76.348 305.323,76.348 C305.323,76.348 324.544,72.202 324.544,57.096 C324.544,52.916 322.226,49.023 320.458,45.74" mask="url(#maps_br-4-b)"/>
    <text fill="#FFFFFE" font-family="NeutraText-DemiSC, Neutra Text" font-size="19.519" font-weight="400" letter-spacing="-.01" mask="url(#maps_br-4-b)">
      <tspan x="291.281" y="65.82">3</tspan> <tspan x="300.113" y="65.82" letter-spacing="-.478">9</tspan> <tspan x="308.34" y="65.82">4</tspan>
    </text>
  </g>
</svg>
